<?xml version="1.0" encoding="UTF-8" standalone="no"?>
<!-- Created with Inkscape (http://www.inkscape.org/) -->

<svg
   width="210mm"
   height="297mm"
   viewBox="0 0 210 297"
   version="1.1"
   id="svg12717"
   inkscape:version="1.2.2 (732a01da63, 2022-12-09, custom)"
   sodipodi:docname="combine.svg"
   xmlns:inkscape="http://www.inkscape.org/namespaces/inkscape"
   xmlns:sodipodi="http://sodipodi.sourceforge.net/DTD/sodipodi-0.dtd"
   xmlns="http://www.w3.org/2000/svg"
   xmlns:svg="http://www.w3.org/2000/svg">
  <sodipodi:namedview
     id="namedview12719"
     pagecolor="#ffffff"
     bordercolor="#000000"
     borderopacity="0.25"
     inkscape:showpageshadow="2"
     inkscape:pageopacity="0.0"
     inkscape:pagecheckerboard="0"
     inkscape:deskcolor="#d1d1d1"
     inkscape:document-units="mm"
     showgrid="false"
     inkscape:zoom="0.4792789"
     inkscape:cx="135.62041"
     inkscape:cy="631.15651"
     inkscape:window-width="1318"
     inkscape:window-height="704"
     inkscape:window-x="48"
     inkscape:window-y="27"
     inkscape:window-maximized="1"
     inkscape:current-layer="svg12717"
     inkscape:lockguides="false" />
  <defs
     id="defs12714" />
  <g
     inkscape:groupmode="layer"
     id="layer2"
     inkscape:label="Layer 2"
     style="display:none" />
  <ellipse
     style="fill:#ffffff;fill-opacity:0.990132;stroke:#000000;stroke-width:0.953147"
     id="path12774"
     cx="48.231747"
     cy="49.86478"
     rx="41.988506"
     ry="42.034039" />
  <ellipse
     style="fill:#ffffff;fill-opacity:0.990132;stroke:#000000;stroke-width:1.36066"
     id="path12776"
     cx="48.231747"
     cy="49.864777"
     rx="33.291897"
     ry="33.327999" />
  <ellipse
     style="fill:#ffffff;fill-opacity:0.990132;stroke:#000000;stroke-width:1.06581"
     id="path12778"
     cx="48.231747"
     cy="49.864777"
     rx="24.94628"
     ry="24.97333" />
  <ellipse
     style="fill:#ffffff;fill-opacity:0.990132;stroke:#000000;stroke-width:1.77432"
     id="path12780"
     cx="48.231747"
     cy="49.864777"
     rx="16.099251"
     ry="16.116707" />
  <ellipse
     style="fill:#ffffff;fill-opacity:0.990132;stroke:#000000;stroke-width:1.05593"
     id="path12782"
     cx="48.231747"
     cy="49.864777"
     rx="7.9652858"
     ry="7.9739227" />
  <path
     style="fill:#ffffff;fill-opacity:0.990132;stroke:#000000;stroke-width:0.620552"
     d="m 145.25484,7.824767 c -13.86482,18.85266 -13.86482,18.85266 -13.86482,18.85266 27.91994,-0.0209 27.91994,-0.0209 27.91994,-0.0209 0,0 -10.30387,-13.65637 -14.05512,-18.8318 z"
     id="path12152" />
  <path
     style="fill:#ffffff;fill-opacity:0.990132;stroke:#000000;stroke-width:0.620552"
     d="m 159.38779,26.688547 30.54033,-0.59945 -14.42857,22.56234 -16.33048,-21.64991"
     id="path12154"
     sodipodi:nodetypes="cccc" />
  <path
     style="fill:#ffffff;fill-opacity:0.990132;stroke:#000000;stroke-width:0.620552"
     d="m 175.72689,48.466387 -13.11323,21.69987 30.10045,0.24271 -16.7943,-21.51634"
     id="path12156"
     sodipodi:nodetypes="cccc" />
  <path
     style="fill:#ffffff;fill-opacity:0.990132;stroke:#000000;stroke-width:0.620552"
     d="m 131.19757,26.473257 -30.2849,-0.23661 14.2115,22.97185 16.17979,-22.03215"
     id="path12160"
     sodipodi:nodetypes="cccc" />
  <path
     style="fill:#ffffff;fill-opacity:0.990132;stroke:#000000;stroke-width:0.620552"
     d="m 115.45732,49.274347 -15.26115,20.71482 28.29525,0.15279 -13.09141,-20.7102"
     id="path12162"
     sodipodi:nodetypes="cccc" />
  <path
     style="fill:#ffffff;fill-opacity:0.990132;stroke:#000000;stroke-width:0.620552"
     d="m 132.15168,26.452957 11.91556,22.51043 c -28.55385,0.42918 -28.68631,0.62552 -28.68631,0.62552 16.46778,-23.66264 16.77075,-23.13595 16.77075,-23.13595 z"
     id="path12204"
     sodipodi:nodetypes="cccc" />
  <path
     style="fill:#ffffff;fill-opacity:0.990132;stroke:#000000;stroke-width:0.620552"
     d="m 144.48679,48.991857 14.35469,-22.29404 16.51651,22.25858 -30.64434,0.13917"
     id="path12214"
     sodipodi:nodetypes="cccc" />
  <path
     style="fill:#ffffff;fill-opacity:0.990132;stroke:#000000;stroke-width:0.620552"
     d="m 115.211,49.485587 29.35054,-0.63238 -15.9667,21.64126 -13.07968,-20.70048"
     id="path12218"
     sodipodi:nodetypes="cccc" />
  <path
     style="fill:#ffffff;fill-opacity:0.990132;stroke:#000000;stroke-width:0.620552"
     d="m 128.72961,70.279167 15.53573,-21.40015 18.52394,21.35785 -34.19264,-0.01"
     id="path12220"
     sodipodi:nodetypes="cccc" />
  <path
     style="fill:#ffffff;fill-opacity:0.990132;stroke:#000000;stroke-width:0.620552"
     d="m 144.37149,49.114337 31.01541,-0.0428 -12.68848,20.87707 -18.40608,-20.22502"
     id="path12224"
     sodipodi:nodetypes="cccc" />
  <path
     style="fill:#ffffff;fill-opacity:0.990132;stroke:#000000;stroke-width:0.620552"
     d="m 128.80125,70.158767 c 34.25914,0.4482 33.87369,0.1053 33.87369,0.1053 -16.52144,26.33555 -16.61559,26.33555 -16.61559,26.33555 l -17.19629,-26.51765"
     id="path12226"
     sodipodi:nodetypes="cccc" />
  <path
     style="fill:#ffffff;fill-opacity:0.990132;stroke:#000000;stroke-width:0.620552"
     d="m 131.77188,26.412227 27.47474,-0.0388 -14.89901,22.4464 -12.71325,-22.47904"
     id="path12245"
     sodipodi:nodetypes="cccc" />
  <rect
     style="fill:#ffffff;fill-opacity:0.990132;stroke:#000000;stroke-width:0.879687"
     id="rect12475"
     width="36.734215"
     height="46.992481"
     x="7.7089205"
     y="134.79324"
     ry="0" />
  <rect
     style="fill:#ffffff;fill-opacity:0.990132;stroke:#000000;stroke-width:0.696908"
     id="rect12479"
     width="62.664673"
     height="47.374096"
     x="46.030293"
     y="148.30644"
     ry="0"
     transform="matrix(0.95493016,-0.29683056,0,1,0,0)" />
  <rect
     style="fill:#ffffff;fill-opacity:0.990132;stroke:#000000;stroke-width:0.693855"
     id="rect12483"
     width="63.114239"
     height="22.574078"
     x="3.8204935"
     y="122.20158"
     transform="matrix(0.93585421,-0.35238742,0.28595859,0.95824198,0,0)"
     ry="0" />
  <path
     style="fill:#ffffff;fill-opacity:0.990132;stroke:#000000;stroke-width:0.744034"
     d="M 7.0792453,134.61511 C 38.90091,114.83098 38.391536,114.38114 38.391536,114.38114 v 0 c 4.561322,20.61369 5.123309,20.61369 5.123309,20.61369 C -0.60307068,135.37671 6.8863843,134.4346 6.8863843,134.4346"
     id="path12497"
     sodipodi:nodetypes="ccscc" />
  <rect
     style="fill:#ffffff;fill-opacity:0.990132;stroke:#000000;stroke-width:0.744034"
     id="rect12499"
     width="16.509541"
     height="25.595058"
     x="17.801727"
     y="156.23622"
     ry="5.3181262" />
  <ellipse
     style="fill:#ffffff;fill-opacity:0.990132;stroke:#000000;stroke-width:0.744034"
     id="path12501"
     cx="62.269409"
     cy="153.64528"
     rx="6.6514106"
     ry="5.4085231" />
  <ellipse
     style="fill:#ffffff;fill-opacity:0.990132;stroke:#000000;stroke-width:0.744034"
     id="path12503"
     cx="91.166504"
     cy="147.01755"
     rx="5.5841408"
     ry="6.4873209" />
  <ellipse
     style="fill:#ffffff;fill-opacity:0.990132;stroke:#000000;stroke-width:0.647081"
     id="path12543"
     cx="159.11655"
     cy="130.36165"
     rx="30.230793"
     ry="22.160868" />
  <rect
     style="fill:#ffffff;fill-opacity:0.990132;stroke:#000000;stroke-width:0.647081"
     id="rect12547"
     width="86.421509"
     height="60.123161"
     x="114.10356"
     y="166.02174"
     ry="0" />
  <path
     style="fill:#ffffff;fill-opacity:0.990132;stroke:#000000;stroke-width:0.647081"
     d="m 183.6702,142.66663 0.27697,23.23991 -1.64366,0.15719 c 0,0 0.85454,-0.4812 -43.67817,0.19609 0,0 0,0 -0.13217,-19.67825 11.5762,0.12421 23.02141,-0.53809 34.27254,-2.25864 1.00701,-0.154 2.16487,0.0838 3.1858,0 0.53047,-0.0435 5.63804,-0.46744 5.8926,-0.59983 0.63244,-0.32891 1.2174,-0.70431 1.82609,-1.05647 z"
     id="path12684" />
  <ellipse
     style="fill:#ffffff;fill-opacity:0.990132;stroke:#000000;stroke-width:0.647081"
     id="path12686"
     cx="147.27893"
     cy="123.3539"
     rx="4.0502343"
     ry="2.390219" />
  <ellipse
     style="fill:#ffffff;fill-opacity:0.990132;stroke:#000000;stroke-width:0.647081"
     id="path12688"
     cx="172.1993"
     cy="123.71033"
     rx="4.8048391"
     ry="2.7847753" />
  <path
     style="fill:#ffffff;fill-opacity:0.990132;stroke:#000000;stroke-width:0.647081"
     d="m 158.40278,126.76997 c -4.00019,5.92498 -4.00019,6.02363 -4.00019,6.02363 11.5194,0.0976 11.79167,0.0976 11.79167,0.0976 z"
     id="path12690" />
  <rect
     style="fill:#ffffff;fill-opacity:0.990132;stroke:#000000;stroke-width:0.647081"
     id="rect12692"
     width="25.038389"
     height="4.7490025"
     x="148.57288"
     y="136.05757" />
  <ellipse
     style="fill:#ffffff;fill-opacity:0.990132;stroke:#000000;stroke-width:0.647081"
     id="path12694"
     cx="156.47189"
     cy="181.0605"
     rx="2.9471033"
     ry="3.7426586" />
  <ellipse
     style="fill:#ffffff;fill-opacity:0.990132;stroke:#000000;stroke-width:0.647081"
     id="path12696"
     cx="159.37622"
     cy="195.04359"
     rx="3.0556221"
     ry="3.0717661" />
  <ellipse
     style="fill:#ffffff;fill-opacity:0.990132;stroke:#000000;stroke-width:0.647081"
     id="path12698"
     cx="160.2581"
     cy="212.14391"
     rx="2.8712685"
     ry="4.2746854" />
  <rect
     style="fill:#ffffff;fill-opacity:0.990132;stroke:#000000;stroke-width:1"
     id="rect13315"
     width="31.741488"
     height="19.321461"
     x="9.6887465"
     y="234.87241" />
  <rect
     style="fill:#ffffff;fill-opacity:0.990132;stroke:#000000;stroke-width:1"
     id="rect13317"
     width="32.376621"
     height="19.764503"
     x="11.245112"
     y="266.90424" />
  <rect
     style="fill:#ffffff;fill-opacity:0.990132;stroke:#000000;stroke-width:1"
     id="rect13319"
     width="29.900843"
     height="18.078114"
     x="58.916843"
     y="235.17824" />
  <rect
     style="fill:#ffffff;fill-opacity:0.990132;stroke:#000000;stroke-width:1"
     id="rect13321"
     width="31.625074"
     height="18.245977"
     x="58.148113"
     y="266.49713" />
  <rect
     style="fill:#ffffff;fill-opacity:0.990132;stroke:#000000;stroke-width:1"
     id="rect13323"
     width="28.74992"
     height="18.379742"
     x="106.62318"
     y="235.21284" />
  <rect
     style="fill:#ffffff;fill-opacity:0.990132;stroke:#000000;stroke-width:1"
     id="rect13325"
     width="30.722879"
     height="15.931898"
     x="108.06165"
     y="268.12219" />
  <rect
     style="fill:#ffffff;fill-opacity:0.990132;stroke:#000000;stroke-width:1"
     id="rect13327"
     width="31.531538"
     height="17.160015"
     x="150.26729"
     y="235.91435" />
  <rect
     style="fill:#ffffff;fill-opacity:0.990132;stroke:#000000;stroke-width:1"
     id="rect13329"
     width="33.894272"
     height="16.813236"
     x="152.6525"
     y="267.81912" />
  <rect
     style="fill:#ffffff;fill-opacity:0.990132;stroke:#000000;stroke-width:1"
     id="rect227"
     width="93.846466"
     height="32.34436"
     x="9.2766342"
     y="190.87495" />
  <ellipse
     style="fill:#ffffff;fill-opacity:0.990132;stroke:#000000;stroke-width:1"
     id="path281"
     cx="33.6884"
     cy="207.07878"
     rx="12.84336"
     ry="9.2802477" />
  <ellipse
     style="fill:#ffffff;fill-opacity:0.990132;stroke:#000000;stroke-width:1"
     id="path283"
     cx="82.474785"
     cy="207.40605"
     rx="10.988616"
     ry="9.4042416" />
  <rect
     style="fill:#ffffff;fill-opacity:0.990132;stroke:#000000;stroke-width:1"
     id="rect334"
     width="31.511187"
     height="24.104174"
     x="83.752487"
     y="83.168716" />
</svg>
