<?xml version="1.0" encoding="UTF-8" standalone="no"?>
<!-- Created with Inkscape (http://www.inkscape.org/) -->

<svg
   width="210mm"
   height="297mm"
   viewBox="0 0 210 297"
   version="1.1"
   id="svg1121"
   inkscape:version="1.2.2 (732a01da63, 2022-12-09, custom)"
   sodipodi:docname="umbrila.svg"
   xmlns:inkscape="http://www.inkscape.org/namespaces/inkscape"
   xmlns:sodipodi="http://sodipodi.sourceforge.net/DTD/sodipodi-0.dtd"
   xmlns="http://www.w3.org/2000/svg"
   xmlns:svg="http://www.w3.org/2000/svg">
  <sodipodi:namedview
     id="namedview1123"
     pagecolor="#ffffff"
     bordercolor="#000000"
     borderopacity="0.25"
     inkscape:showpageshadow="2"
     inkscape:pageopacity="0.0"
     inkscape:pagecheckerboard="0"
     inkscape:deskcolor="#d1d1d1"
     inkscape:document-units="mm"
     showgrid="false"
     inkscape:zoom="0.4792789"
     inkscape:cx="396.42889"
     inkscape:cy="562.30308"
     inkscape:window-width="1318"
     inkscape:window-height="704"
     inkscape:window-x="48"
     inkscape:window-y="27"
     inkscape:window-maximized="1"
     inkscape:current-layer="layer1"
     inkscape:lockguides="false" />
  <defs
     id="defs1118" />
  <g
     inkscape:label="Layer 1"
     inkscape:groupmode="layer"
     id="layer1">
    <path
       style="fill:#ffffff;fill-opacity:0.990132;stroke:#000000;stroke-width:1"
       d="m 11.232241,126.73674 c 0,0 23.78711,-86.052709 90.710499,-86.427982 76.83134,-0.430833 93.92359,85.968612 93.92359,85.968612"
       id="path2028"
       sodipodi:nodetypes="csc" />
    <path
       style="fill:#ffffff;fill-opacity:0.990132;stroke:#000000;stroke-width:1"
       d="m 101.09017,40.687201 c 0,0 -20.108375,8.128075 -36.227587,34.549922 C 50.146381,99.359221 50.030189,130.82665 50.030189,130.82665"
       id="path2084"
       sodipodi:nodetypes="csc" />
    <path
       style="fill:#ffffff;fill-opacity:0.990132;stroke:#000000;stroke-width:1"
       d="m 101.25498,40.315089 c 0,0 20.10838,8.128025 36.22759,34.549725 14.7162,24.121962 14.83239,55.589386 14.83239,55.589386"
       id="path2084-3"
       sodipodi:nodetypes="csc" />
    <path
       style="fill:#ffffff;fill-opacity:0.990132;stroke:#000000;stroke-width:1"
       d="m 101.71543,40.397088 c 0,0 -17.241146,22.469193 -21.015307,40.818415 -4.750668,23.096807 0.831414,50.277907 0.831414,50.277907"
       id="path2113"
       sodipodi:nodetypes="csc" />
    <path
       style="fill:#ffffff;fill-opacity:0.990132;stroke:#000000;stroke-width:1"
       d="m 102.11189,40.792306 c 0,0 17.7419,19.026586 21.01543,40.818369 3.50288,23.318585 -0.83141,50.277805 -0.83141,50.277805"
       id="path2113-5"
       sodipodi:nodetypes="csc" />
    <path
       style="fill:#ffffff;fill-opacity:0.990132;stroke:#000000;stroke-width:1"
       d="m 11.508263,126.14661 c 0,0 9.669772,-5.08414 20.980317,-3.75777 9.634307,1.1298 17.935727,8.84885 17.935727,8.84885"
       id="path2172"
       sodipodi:nodetypes="csc"
       sodipodi:insensitive="true" />
    <path
       style="fill:#ffffff;fill-opacity:0.990132;stroke:#000000;stroke-width:1"
       d="m 152.92896,129.61073 c 0,0 9.02846,-6.34993 20.33454,-7.71376 13.6585,-1.64761 21.90567,2.94228 21.90567,2.94228"
       id="path2172-6"
       sodipodi:nodetypes="csc"
       sodipodi:insensitive="true" />
    <path
       style="fill:#ffffff;fill-opacity:0.990132;stroke:#000000;stroke-width:1"
       d="m 49.464044,131.40728 c 0,0 2.005795,-3.87751 13.311875,-5.24134 13.6585,-1.64761 18.853757,5.44187 18.853757,5.44187"
       id="path2172-6-2"
       sodipodi:nodetypes="csc"
       sodipodi:insensitive="true" />
    <path
       style="fill:#ffffff;fill-opacity:0.990132;stroke:#000000;stroke-width:1"
       d="m 122.19652,132.5004 c 0,0 4.0021,-7.29084 15.35071,-6.34406 13.6585,1.13948 13.97312,4.77353 13.97312,4.77353"
       id="path2172-6-2-9"
       sodipodi:nodetypes="csc"
       sodipodi:insensitive="true" />
    <path
       style="fill:#ffffff;fill-opacity:0.990132;stroke:#000000;stroke-width:1"
       d="m 81.095063,130.85487 c 0,0 10.084449,-6.9677 21.771377,-6.88412 10.93962,0.0782 19.66653,7.76002 19.66653,7.76002"
       id="path2315"
       sodipodi:nodetypes="csc"
       sodipodi:insensitive="true" />
    <path
       style="fill:#ffffff;fill-opacity:0.990132;stroke:#000000;stroke-width:1"
       d="m 108.10009,124.35084 c 0,0 17.9051,100.93904 -5.9835,127.21364 -20.470462,22.5151 -47.714653,-25.85455 -36.241452,-34.06251"
       id="path2317"
       sodipodi:nodetypes="csc"
       sodipodi:insensitive="true" />
    <path
       style="fill:#ffffff;fill-opacity:0.990132;stroke:#000000;stroke-width:1"
       d="m 100.1678,124.39182 c 0,0 17.90507,100.93904 -5.983437,127.21364 -20.470368,22.5151 -47.714559,-25.85455 -36.241358,-34.06251"
       id="path2317-1"
       sodipodi:nodetypes="csc"
       sodipodi:insensitive="true" />
    <ellipse
       style="fill:#ffffff;fill-opacity:0.990132;stroke:#000000;stroke-width:1"
       id="path2847"
       cx="101.74808"
       cy="37.500191"
       rx="2.5509319"
       ry="3.1221824"
       sodipodi:insensitive="true" />
  </g>
</svg>
